<?xml version="1.0" encoding="UTF-8"?>
<svg id="Livello_2" data-name="Livello 2" xmlns="http://www.w3.org/2000/svg" viewBox="0 0 651.97 737.08">
  <defs>
    <style>
      .cls-1 {
        fill: #f70;
        stroke-width: 0px;
      }
    </style>
  </defs>
  <g id="Layer_1" data-name="Layer 1">
    <g>
      <rect class="cls-1" x="241.34" width="169.28" height="190.45"/>
      <rect class="cls-1" x="241.34" y="546.64" width="169.28" height="190.45"/>
      <path class="cls-1" d="m328.56,452.94c41.03,0,67.29-19.46,67.29-50.17,0-22.27-11.72-35.17-40.09-44.78l-40.09-13.6c-13.36-4.45-18.29-8.91-18.29-16.41,0-10.32,9.85-16.65,26.02-16.65,17.35,0,27.9,6.57,31.65,20.16h39.15c-5.39-31.18-29.3-47.36-69.86-47.36s-64.47,18.52-64.47,47.36c0,21.8,11.96,34.93,41.5,45.01l38.21,12.89c13.83,4.92,18.76,9.14,18.76,17.58,0,11.49-11.02,18.76-28.6,18.76s-29.31-8.21-32.59-22.04h-41.03c3.99,30.24,31.88,49.23,72.44,49.23"/>
      <rect class="cls-1" x="461.52" y="283.9" width="190.44" height="169.28"/>
      <rect class="cls-1" y="283.9" width="190.45" height="169.28"/>
    </g>
  </g>
</svg>