<?xml version="1.0" encoding="UTF-8"?>
<svg id="Livello_2" data-name="Livello 2" xmlns="http://www.w3.org/2000/svg" viewBox="0 0 651.97 737.08">
  <defs>
    <style>
      .cls-1 {
        fill: #f70;
        stroke-width: 0px;
      }
    </style>
  </defs>
  <g id="Layer_1" data-name="Layer 1">
    <g>
      <rect class="cls-1" x="241.34" width="169.28" height="190.45"/>
      <rect class="cls-1" x="241.34" y="546.64" width="169.28" height="190.45"/>
      <path class="cls-1" d="m401.36,366.34h-3.82v-5.31h3.92c2.5,0,3.57.81,3.57,2.66s-1.13,2.66-3.66,2.66m-9.07,13.55h5.25v-9.79h3.43c3.37,0,3.6,1.59,3.66,4.08.1,3.18.16,4.76.88,5.7h5.38c-.84-1.39-.97-3.34-1.07-5.8-.16-4.18-.81-5.35-3.6-5.99v-.07c2.72-.78,4.15-2.56,4.15-5.19,0-3.69-2.66-5.64-7.81-5.64h-10.27v22.68Zm-19.57,0h16.11v-3.92h-10.86v-5.64h9.27v-3.86h-9.27v-5.35h10.73v-3.92h-15.98v22.68Zm-14.84,0h5.19v-18.73h6.48v-3.95h-18.18v3.95h6.51v18.73Zm-17.57.32c5.67,0,9.3-2.69,9.3-6.93,0-3.08-1.62-4.86-5.54-6.19l-5.54-1.88c-1.85-.62-2.53-1.23-2.53-2.27,0-1.43,1.36-2.3,3.6-2.3,2.4,0,3.86.91,4.38,2.79h5.41c-.75-4.31-4.05-6.55-9.66-6.55s-8.91,2.56-8.91,6.55c0,3.01,1.65,4.83,5.74,6.22l5.28,1.78c1.91.68,2.59,1.26,2.59,2.43,0,1.59-1.52,2.59-3.95,2.59s-4.05-1.14-4.5-3.05h-5.67c.55,4.18,4.41,6.81,10.01,6.81m-28.42-.32h16.11v-3.92h-10.86v-5.64h9.27v-3.86h-9.27v-5.35h10.73v-3.92h-15.98v22.68Zm-28.52,0h4.38v-17.92h.1l5.22,17.92h4.18l5.18-17.92h.1v17.92h4.89v-22.68h-7.32l-4.54,16.11h-.1l-4.6-16.11h-7.49v22.68Zm-19.57,0h16.11v-3.92h-10.86v-5.64h9.27v-3.86h-9.27v-5.35h10.73v-3.92h-15.98v22.68Zm-12.7.32c5.67,0,9.3-2.69,9.3-6.93,0-3.08-1.62-4.86-5.54-6.19l-5.54-1.88c-1.85-.62-2.53-1.23-2.53-2.27,0-1.43,1.36-2.3,3.6-2.3,2.4,0,3.86.91,4.38,2.79h5.41c-.74-4.31-4.05-6.55-9.66-6.55s-8.91,2.56-8.91,6.55c0,3.01,1.65,4.83,5.74,6.22l5.28,1.78c1.91.68,2.59,1.26,2.59,2.43,0,1.59-1.52,2.59-3.95,2.59s-4.05-1.14-4.5-3.05h-5.67c.55,4.18,4.41,6.81,10.01,6.81"/>
      <rect class="cls-1" x="461.52" y="283.9" width="190.44" height="169.28"/>
      <rect class="cls-1" y="283.9" width="190.45" height="169.28"/>
    </g>
  </g>
</svg>